# xmcd
#
# Track frame offsets:
#	150
#	14680
#	30127
#	48104
#	65498
#	78042
#	89631
#	102831
#	117184
#	132515
#	150287
#	166942
#	182833
#	204198
#	222487
#	235349
#	251181
#	265071
#	282095
#
# Disc length: 4026 seconds
#
# Revision: 1
# Processed by: cddbd v1.5.1PL0 Copyright (c) Steve Scherf et al.
# Submitted via: audiograbber 1.83.01
#
DISCID=fb0fb813
DTITLE=Various Artist - The Best Of R&B: Hit Selection [Disc 2]
DYEAR=2004
DGENRE=R&B
TTITLE0=Jamelia - Thank You
TTITLE1=Kelis - Trick Me
TTITLE2=Joss Stone - You Had Me
TTITLE3=OutKast - Hey Ya!
TTITLE4=Verbalicious - Dont Play Nice
TTITLE5=3 Of A Kind - Baby Cakes
TTITLE6=Jentina - French Kisses
TTITLE7=2 Play (ft Raghav and Jucxi) - So Confused
TTITLE8=Blue (ft LADE) - Bubblin'
TTITLE9=Javine - Dont Walk Away (Bad Boy Remix)
TTITLE10=Lisa Maffia - All Over
TTITLE11=Thalia (ft Fat Joe) - I Want You
TTITLE12=Aaliyah - Try Again
TTITLE13=Snoop Dogg (ft Pharrell and Uncle Charlie Wilson) - Beautiful
TTITLE14=Jay Sean (ft The Rishi Rich Project) - Eyes On You
TTITLE15=VS - Call U Sexy
TTITLE16=Terrah Danjah (ft Sadie and Kano) - So Sure
TTITLE17=Rhian Benson - Say How I Feel
TTITLE18=D'Angelo - Brown Sugar
EXTD=
EXTT0=
EXTT1=
EXTT2=
EXTT3=
EXTT4=
EXTT5=
EXTT6=
EXTT7=
EXTT8=
EXTT9=
EXTT10=
EXTT11=
EXTT12=
EXTT13=
EXTT14=
EXTT15=
EXTT16=
EXTT17=
EXTT18=
PLAYORDER=
